<?xml version="1.0" encoding="UTF-8"?>
<svg width="1024" height="1024" viewBox="0 0 1024 1024" fill="none" xmlns="http://www.w3.org/2000/svg">
    <!-- 背景圆形 -->
    <circle cx="512" cy="512" r="460" fill="#25C151"/>
    
    <!-- 铃铛外形 -->
    <path d="M512 192c-88.4 0-160 71.6-160 160v164.8c0 25.6-8.8 50.4-24.8 70.4L280 652.8c-11.2 14.4-1.6 35.2 16.8 35.2h430.4c18.4 0 28-20.8 16.8-35.2l-47.2-65.6c-16-20-24.8-44.8-24.8-70.4V352c0-88.4-71.6-160-160-160z" 
          fill="white"/>
    
    <!-- 铃铛底座 -->
    <path d="M419.2 720c3.2 53.6 48 96 92.8 96s89.6-42.4 92.8-96H419.2z" 
          fill="white"/>
    
    <!-- 铃铛顶部 -->
    <path d="M512 160c17.6 0 32-14.4 32-32s-14.4-32-32-32-32 14.4-32 32 14.4 32 32 32z" 
          fill="white"/>
    
    <!-- 外环 -->
    <circle cx="512" cy="512" r="460" stroke="white" stroke-width="32" fill="none"/>
    
    <!-- 动态效果线条 -->
    <g opacity="0.6">
        <path d="M352 352c-17.6 0-32-14.4-32-32 0-106.4 86.4-192 192-192" 
              stroke="white" 
              stroke-width="32" 
              stroke-linecap="round"/>
        <path d="M672 352c17.6 0 32-14.4 32-32 0-106.4-86.4-192-192-192" 
              stroke="white" 
              stroke-width="32" 
              stroke-linecap="round"/>
    </g>
</svg> 