<?xml version="1.0" encoding="UTF-8"?>
<svg width="16" height="16" viewBox="0 0 16 16" version="1.1" xmlns="http://www.w3.org/2000/svg">
    <style>
        path { fill: #34D399; }
    </style>
    <!-- 铃铛 -->
    <path d="M8,1.5 C8.8,1.5 9.5,2.2 9.5,3 L9.5,3.2 C11.7,3.9 13,5.8 13,8 L13,11.5 L14,12.5 L14,13 L2,13 L2,12.5 L3,11.5 L3,8 C3,5.8 4.3,3.9 6.5,3.2 L6.5,3 C6.5,2.2 7.2,1.5 8,1.5 Z M10,14 C10,15.1 9.1,16 8,16 C6.9,16 6,15.1 6,14 L10,14 Z" opacity="0.5"/>
    <!-- 勾号 -->
    <path d="M11.5,4.5 L7,9 L4.5,6.5 L3.5,7.5 L7,11 L12.5,5.5 Z"/>
</svg> 