<?xml version="1.0" encoding="UTF-8"?>
<svg width="16" height="16" viewBox="0 0 16 16" xmlns="http://www.w3.org/2000/svg">
    <g fill="none" fill-rule="evenodd">
        <path d="M8,1.5 C8.8,1.5 9.5,2.2 9.5,3 L9.5,3.2 C11.7,3.9 13,5.8 13,8 L13,11.5 L14,12.5 L14,13 L2,13 L2,12.5 L3,11.5 L3,8 C3,5.8 4.3,3.9 6.5,3.2 L6.5,3 C6.5,2.2 7.2,1.5 8,1.5 Z M10,14 C10,15.1 9.1,16 8,16 C6.9,16 6,15.1 6,14 L10,14 Z" fill="#f59e0b"/>
        <path d="M4 8l2 2 4-4" stroke="#FFFFFF" stroke-width="2" fill="none" />
    </g>
</svg> 